<svg xmlns="http://www.w3.org/2000/svg" xmlns:xlink="http://www.w3.org/1999/xlink" viewBox="0 0 387 325">
    <defs>
        <clipPath id="clip-path">
            <path d="M272.54,204.44,309.64,1.62H387L318.31,325.07H237.44L194.13,140.68,151.7,325.07H71.06L2.19,1.62H79.72l37.1,202.82L161.25,1.62h66.2Z" fill="none"/>
        </clipPath>
    </defs>
    <title>W</title>
    <g id="W">
        <g clip-path="url(#clip-path)" fill="#fff">
            <rect x="13" y="-28" width="54" height="393" transform="translate(-12.74 3.54) rotate(-4.38)"/>
            <rect x="205" y="-28" width="54" height="393" transform="translate(-12.18 18.2) rotate(-4.38)"/>
            <rect x="238.39" y="-44.67" width="28.3" height="393" transform="translate(38.62 -50.81) rotate(12.43)"/>
            <rect x="117.39" y="-20.67" width="28.3" height="393" transform="translate(12.42 -8.64) rotate(3.95)"/>
            <rect x="299.39" y="-27.67" width="28.3" height="393" transform="translate(12.37 -21.19) rotate(3.95)"/>
            <rect x="322.39" y="-25.67" width="28.3" height="393" transform="translate(12.56 -22.76) rotate(3.95)"/>
            <rect x="122.39" y="-20.67" width="28.3" height="393" transform="translate(-14.9 12.65) rotate(-5.03)"/>
            <rect x="40.39" y="-28.67" width="28.3" height="393" transform="translate(9.24 -2.73) rotate(3.13)"/>
            <rect x="95.39" y="-22.67" width="28.3" height="393" transform="translate(9.65 -5.72) rotate(3.13)"/>
            <rect x="348.39" y="-27.67" width="28.3" height="393" transform="translate(9.75 -19.53) rotate(3.13)"/>
            <rect x="147.39" y="-22.67" width="28.3" height="393" transform="translate(9.73 -8.56) rotate(3.13)"/>
            <rect x="172.39" y="-22.67" width="28.3" height="393" transform="matrix(1, -0.01, 0.01, 1, -1.07, 1.16)"/>
            <rect x="80.39" y="-20.67" width="28.3" height="393" transform="matrix(1, -0.01, 0.01, 1, -1.09, 0.59)"/>
            <rect x="295.39" y="-22.67" width="28.3" height="393" transform="matrix(1, -0.01, 0.01, 1, -1.07, 1.92)"/>
            <rect x="65.39" y="-20.67" width="28.3" height="393" transform="matrix(1, -0.01, 0.01, 1, -1.09, 0.5)"/>
            <rect x="244.39" y="-31.67" width="28.3" height="393" transform="translate(-24.45 46.81) rotate(-9.88)"/>
            <rect x="274.39" y="-25.67" width="28.3" height="393" transform="translate(-13.35 24.89) rotate(-4.83)"/>
        </g>
    </g>
</svg>